<?xml version="1.0" encoding="utf-8"?>
<!-- Generator: Adobe Illustrator 22.1.0, SVG Export Plug-In . SVG Version: 6.00 Build 0)  -->
<svg version="1.1" id="图层_1" xmlns="http://www.w3.org/2000/svg" xmlns:xlink="http://www.w3.org/1999/xlink" x="0px" y="0px"
	 viewBox="0 0 200 200" style="enable-background:new 0 0 200 200;" xml:space="preserve">
<style type="text/css">
	.st0{fill-rule:evenodd;clip-rule:evenodd;fill:#747E8B;}
</style>
<path class="st0" d="M100.2,197.8c-53.8,0-97.5-43.7-97.5-97.5S46.3,2.8,100.2,2.8s97.5,43.7,97.5,97.5S154,197.8,100.2,197.8z
	 M100.2,8.2c-50.9,0-92.1,41.2-92.1,92.1s41.2,92.1,92.1,92.1s92.1-41.2,92.1-92.1S151,8.2,100.2,8.2z M139.2,138.2h-78
	c-5.4,0-9.8-4.3-9.8-9.5l0-46.8L99,107.2c0.7,0.4,1.6,0.4,2.3,0l47.6-25.2v46.9C148.9,134,144.5,138.2,139.2,138.2z M51.5,71.8
	c0-5.2,4.4-9.4,9.7-9.4h78c5.3,0,9.7,4.2,9.8,9.4l-48.7,26.5L51.5,71.8z"/>
</svg>
