<?xml version="1.0" encoding="utf-8"?>
<!-- Generator: Adobe Illustrator 22.1.0, SVG Export Plug-In . SVG Version: 6.00 Build 0)  -->
<svg version="1.1" id="图层_1" xmlns="http://www.w3.org/2000/svg" xmlns:xlink="http://www.w3.org/1999/xlink" x="0px" y="0px"
	 viewBox="0 0 200 200" style="enable-background:new 0 0 200 200;" xml:space="preserve">
<style type="text/css">
	.st0{fill:#747E8B;}
</style>
<path class="st0" d="M100.2,197.8c-53.8,0-97.5-43.7-97.5-97.5S46.3,2.8,100.2,2.8s97.5,43.7,97.5,97.5S154,197.8,100.2,197.8z
	 M100.2,8.2c-50.9,0-92.1,41.2-92.1,92.1s41.2,92.1,92.1,92.1s92.1-41.2,92.1-92.1S151,8.2,100.2,8.2z"/>
<g>
	<g id="post-instagram">
		<path class="st0" d="M141.1,47.5H55.9c-5.9,0-10.7,4.8-10.7,10.7v85.2c0,5.9,4.8,10.6,10.7,10.6h85.2c5.9,0,10.6-4.8,10.6-10.6
			V58.2C151.8,52.3,147,47.5,141.1,47.5z M98.5,79.4c11.7,0,21.3,9.6,21.3,21.3s-9.6,21.3-21.3,21.3s-21.3-9.6-21.3-21.3
			S86.8,79.4,98.5,79.4z M58.6,143.4c-1.6,0-2.7-1.1-2.7-2.7V95.4h11.2c-0.5,1.6-0.5,3.7-0.5,5.3c0,17.6,14.4,31.9,31.9,31.9
			s31.9-14.4,31.9-31.9c0-1.6,0-3.7-0.5-5.3h11.2v45.3c0,1.6-1.1,2.7-2.7,2.7H58.6z M141.1,71.5c0,1.6-1.1,2.7-2.7,2.7h-10.7
			c-1.6,0-2.7-1.1-2.7-2.7V60.8c0-1.6,1.1-2.7,2.7-2.7h10.7c1.6,0,2.7,1.1,2.7,2.7V71.5z"/>
	</g>
</g>
</svg>
