<svg width="52" height="52" viewBox="0 0 52 52" fill="none" xmlns="http://www.w3.org/2000/svg">
<g clip-path="url(#clip0_1_8844)">
<path d="M51.2492 26.0002C51.2492 12.0554 39.9448 0.750977 26 0.750977C12.0552 0.750977 0.750763 12.0554 0.750763 26.0002C0.750763 39.945 12.0552 51.2495 26 51.2495C39.9448 51.2495 51.2492 39.945 51.2492 26.0002Z" stroke="#757C89" stroke-width="1.58428" stroke-miterlimit="10"/>
<g clip-path="url(#clip1_1_8844)">
<path d="M40.64 15.0601C40.47 15.8801 40.25 16.9901 40.01 18.0601C38.5767 24.8134 37.14 31.5667 35.7 38.3201C35.6305 38.7098 35.5129 39.0893 35.35 39.4501C35.2872 39.6214 35.1902 39.7782 35.0651 39.9111C34.9399 40.0439 34.7891 40.15 34.6218 40.2229C34.4545 40.2958 34.2741 40.334 34.0916 40.3353C33.9091 40.3365 33.7283 40.3007 33.56 40.2301C33.1564 40.09 32.7756 39.8911 32.43 39.6401C30.26 38.0601 28.12 36.4501 25.96 34.8601C25.42 34.4501 25.37 34.4601 24.89 34.9301C23.84 35.9301 22.8 36.9901 21.73 37.9801C21.4461 38.2598 21.1049 38.4747 20.73 38.6101C20.5877 38.6816 20.4303 38.7181 20.271 38.7165C20.1117 38.7149 19.9551 38.6753 19.8143 38.6009C19.6734 38.5266 19.5523 38.4196 19.4611 38.289C19.3699 38.1584 19.3113 38.0079 19.29 37.8501C18.4 35.1301 17.51 32.4101 16.65 29.6801C16.588 29.4392 16.4626 29.2193 16.2867 29.0434C16.1108 28.8675 15.8909 28.742 15.65 28.6801C13.56 28.0601 11.47 27.4001 9.39 26.7401C9.07523 26.6385 8.77321 26.5009 8.48998 26.3301C8.37554 26.277 8.27659 26.1956 8.20247 26.0935C8.12836 25.9914 8.08155 25.8721 8.06652 25.7469C8.05149 25.6217 8.06874 25.4946 8.1166 25.3779C8.16446 25.2612 8.24135 25.1587 8.33999 25.0801C8.81547 24.667 9.35176 24.3297 9.92998 24.0801C12.52 23.0801 15.14 22.0801 17.75 21.0801L38.19 13.2001L38.47 13.1001C39.72 12.6701 40.72 13.3401 40.64 15.0601ZM20.17 36.3601H20.27C20.4 34.8801 20.55 33.3601 20.66 31.9001C20.6674 31.6449 20.726 31.3939 20.8326 31.162C20.9391 30.93 21.0913 30.7219 21.28 30.5501C22.7 29.2901 24.11 28.0001 25.53 26.7301L33.15 19.8601C33.66 19.4001 34.15 18.9301 34.67 18.4501C34.7109 18.4064 34.7411 18.354 34.7584 18.2967C34.7758 18.2395 34.7797 18.1791 34.77 18.1201C34.77 18.1201 34.56 18.0001 34.48 18.0201C34.1323 18.1186 33.7968 18.2562 33.48 18.4301L22.84 25.1301L18.08 28.1301C17.75 28.3301 17.57 28.5701 17.74 28.9801C17.91 29.3901 18.01 29.7901 18.14 30.2001C18.8267 32.2534 19.5033 34.3067 20.17 36.3601Z" fill="#757C89"/>
</g>
</g>
<defs>
<clipPath id="clip0_1_8844">
<rect width="52" height="52" fill="white"/>
</clipPath>
<clipPath id="clip1_1_8844">
<rect width="32.64" height="27.37" fill="white" transform="translate(8 13)"/>
</clipPath>
</defs>
</svg>
