<svg width="44" height="44" viewBox="0 0 44 44" fill="none" xmlns="http://www.w3.org/2000/svg">
<g clip-path="url(#clip0_402_6)">
<path d="M43.3647 22C43.3647 10.2006 33.7994 0.635254 22 0.635254C10.2006 0.635254 0.635254 10.2006 0.635254 22C0.635254 33.7994 10.2006 43.3647 22 43.3647C33.7994 43.3647 43.3647 33.7994 43.3647 22Z" stroke="#9198A1" stroke-width="1.34055" stroke-miterlimit="10"/>
<path d="M9.3345 10.166L19.162 23.3064L9.27225 33.9901H11.4957L20.1549 24.6366L27.1504 33.9901H34.7246L24.3444 20.1135L33.5519 10.166H31.3285L23.3547 18.7808L16.9119 10.166H9.3345ZM12.608 11.8056H16.086L31.4523 32.3512H27.9724L12.608 11.8056Z" fill="#9198A1"/>
</g>
<defs>
<clipPath id="clip0_402_6">
<rect width="44" height="44" fill="white"/>
</clipPath>
</defs>
</svg>
